<svg width="873" height="66" viewBox="0 0 873 66" fill="none" xmlns="http://www.w3.org/2000/svg">
<g clip-path="url(#clip0)">
<path d="M50.7735 62.9314H14.9338L5.58325 25.0653L19.5095 3.50781C21.8776 4.46777 25.7389 5.33202 32.0001 5.33202C38.2618 5.33202 42.1231 4.46777 44.4908 3.50781H44.5015L56.3203 24.5316L50.7735 62.9314Z" fill="#0A141E"/>
<path d="M15.5415 16.1929L16.8642 14.6036C17.8286 13.4532 19.2558 12.7921 20.7573 12.8009H43.2425C44.744 12.7921 46.1712 13.4532 47.1361 14.6036L48.4695 16.2144L52.3733 21.8516L46.5706 45.7289L34.0053 61.974C33.5165 62.5809 32.7792 62.9339 31.9999 62.9339C31.2206 62.9339 30.4833 62.5809 29.9945 61.974L17.4297 45.7289L10.5708 21.8741L15.5415 16.1929Z" fill="#F44335"/>
<path d="M17.6748 38.9756L21.8881 44.4155L31.9999 57.4926L42.1122 44.4155L46.3255 38.9756L49.3656 24.042L43.7655 17.2901C43.6307 17.1451 43.4408 17.0636 43.2425 17.0665H20.7573C20.5595 17.0636 20.3696 17.1451 20.2348 17.2901L14.6348 24.042L17.6748 38.9756Z" fill="#FF9801"/>
<path d="M15.8298 53.1953L18.7097 61.5151C18.8235 61.8408 18.7727 62.2012 18.574 62.4829C18.3747 62.7646 18.052 62.9326 17.7073 62.9336H2.13354C1.54468 62.9336 1.06714 62.4561 1.06714 61.8672V53.334H14.9338C15.238 53.3374 15.5408 53.2905 15.8298 53.1953V53.1953Z" fill="#FF4656"/>
<path d="M1.06714 23.4663V2.13281C1.06714 1.54395 1.54468 1.06641 2.13354 1.06641H18.8162C19.156 1.06592 19.4753 1.22803 19.6765 1.50195C19.8772 1.77539 19.9358 2.12891 19.8342 2.45264L15.5417 16.1914L13.259 23.5088C13.1081 23.4785 12.9543 23.4639 12.8005 23.4663H1.06714Z" fill="#FF4656"/>
<path d="M62.9338 2.13281V61.8659C62.9338 62.4548 62.4563 62.9323 61.8669 62.9323H46.2938C45.949 62.9313 45.6258 62.7634 45.4271 62.4816C45.2279 62.1999 45.1776 61.8396 45.2913 61.5139L48.1712 53.1941L50.7522 23.5087V23.4979L48.47 16.2128L44.1712 2.45263C44.0697 2.12939 44.1273 1.77734 44.3275 1.50342C44.5277 1.22998 44.8455 1.06738 45.1844 1.06641H61.8669C62.4563 1.06641 62.9338 1.54394 62.9338 2.13281V2.13281Z" fill="#5F2D38"/>
<path d="M59.7336 2.13281V61.8659C59.7336 62.4548 59.2561 62.9323 58.6672 62.9323H46.2938C45.949 62.9314 45.6258 62.7634 45.4271 62.4816C45.2279 62.1999 45.1776 61.8396 45.2913 61.5139L48.1712 53.1941L50.7522 23.5087V23.4979L48.47 16.2128L44.1712 2.45263C44.0697 2.12939 44.1273 1.77734 44.3275 1.50342C44.5277 1.22998 44.8455 1.06738 45.1844 1.06641H58.6672C59.2561 1.06641 59.7336 1.54394 59.7336 2.13281Z" fill="#FF4656"/>
<path d="M55.4668 55.4653C55.4668 56.6436 54.5117 57.5986 53.3335 57.5986C52.1553 57.5986 51.2002 56.6436 51.2002 55.4653C51.2002 54.2871 52.1553 53.332 53.3335 53.332C54.5117 53.332 55.4668 54.2871 55.4668 55.4653Z" fill="#FF4656"/>
<path d="M58.667 18.1333C58.667 19.3115 57.7119 20.2666 56.5337 20.2666C55.3555 20.2666 54.4004 19.3115 54.4004 18.1333C54.4004 16.9551 55.3555 16 56.5337 16C57.7119 16 58.667 16.9551 58.667 18.1333V18.1333Z" fill="#FF4656"/>
<path d="M55.4668 9.6001C55.4668 10.7783 54.5117 11.7334 53.3335 11.7334C52.1553 11.7334 51.2002 10.7783 51.2002 9.6001C51.2002 8.42188 52.1553 7.4668 53.3335 7.4668C54.5117 7.4668 55.4668 8.42188 55.4668 9.6001Z" fill="#FF4656"/>
<path d="M7.46701 27.7339H14.9338C15.5715 27.7339 16.195 27.9233 16.7258 28.2778C17.8952 29.0639 18.4133 30.5224 18.0007 31.8701C17.5886 33.2177 16.343 34.1372 14.9338 34.1337C16.0866 34.1313 17.1515 34.7509 17.7194 35.7543C18.2873 36.7573 18.2702 37.9892 17.675 38.9765C17.5427 39.2026 17.3815 39.4106 17.195 39.5951C16.5959 40.1962 15.7824 40.5336 14.9338 40.5336C16.7009 40.5336 18.1335 41.9662 18.1335 43.7338C18.1335 45.5009 16.7009 46.9335 14.9338 46.9335C16.2272 46.935 17.3928 47.7147 17.8874 48.9096C18.382 50.1044 18.1091 51.4799 17.195 52.3949C16.818 52.7772 16.3473 53.0531 15.8298 53.1952C15.5407 53.2904 15.238 53.3373 14.9338 53.3339H1.06714V23.4668L12.8005 23.4673C12.9543 23.4648 13.1081 23.4795 13.259 23.5098C13.7536 23.5762 14.2248 23.7588 14.635 24.043C14.7868 24.1523 14.9294 24.2734 15.0617 24.4058C15.6628 25.0049 16.0002 25.8183 16.0002 26.667C16.0002 27.2563 15.5226 27.7339 14.9338 27.7339H7.46701Z" fill="#FFE0B2"/>
<path d="M62.9336 23.4668V53.3333H49.0669C47.2994 53.3333 45.8668 51.9007 45.8668 50.1332C45.8668 48.3661 47.2994 46.933 49.0669 46.933C48.2183 46.9335 47.4048 46.5956 46.8057 45.9945C46.7217 45.9105 46.6436 45.8217 46.5709 45.7279C45.8008 44.7689 45.65 43.453 46.1827 42.3441C46.7154 41.2357 47.837 40.5312 49.0669 40.5331C48.2183 40.5331 47.4048 40.1957 46.8057 39.5946C46.6192 39.4101 46.4581 39.2021 46.3257 38.976C45.7374 37.9999 45.7139 36.7846 46.2632 35.7861C46.813 34.788 47.8531 34.1581 48.9922 34.1332C47.5967 34.1044 46.3809 33.1738 45.9879 31.8344C45.5953 30.4951 46.1158 29.0556 47.275 28.2773C47.7974 27.9233 48.4141 27.7334 49.0455 27.7334C48.4664 27.7182 48.0035 27.2461 48.0001 26.6665C48.0001 25.8179 48.3379 25.0044 48.939 24.4053C49.0713 24.2729 49.2139 24.1519 49.3658 24.0425C49.7784 23.7568 50.2539 23.5737 50.752 23.5093V23.4985C50.9004 23.4775 51.0503 23.4668 51.2002 23.4668H62.9336Z" fill="#BFA885"/>
<path d="M59.7334 23.4668V53.3333H49.0669C47.2994 53.3333 45.8668 51.9007 45.8668 50.1332C45.8668 48.3661 47.2994 46.933 49.0669 46.933C48.2183 46.9335 47.4048 46.5956 46.8057 45.9945C46.7217 45.9105 46.6436 45.8217 46.5709 45.7279C45.8008 44.7689 45.65 43.453 46.1827 42.3441C46.7154 41.2357 47.837 40.5312 49.0669 40.5331C48.2183 40.5331 47.4048 40.1957 46.8057 39.5946C46.6192 39.4101 46.4581 39.2021 46.3257 38.976C45.7374 37.9999 45.7139 36.7846 46.2632 35.7861C46.813 34.788 47.8531 34.1581 48.9922 34.1332C47.5967 34.1044 46.3809 33.1738 45.9879 31.8344C45.5953 30.4951 46.1158 29.0556 47.275 28.2773C47.7974 27.9233 48.4141 27.7334 49.0455 27.7334C48.4664 27.7182 48.0035 27.2461 48.0001 26.6665C48.0001 25.8179 48.3379 25.0044 48.939 24.4053C49.0713 24.2729 49.2139 24.1519 49.3658 24.0425C49.7784 23.7568 50.2539 23.5737 50.752 23.5093V23.4985C50.9004 23.4775 51.0503 23.4668 51.2002 23.4668H59.7334Z" fill="#FFE0B2"/>
<path d="M12.4628 12.7453C12.7314 12.8346 13.0244 12.8136 13.2778 12.6871C13.5307 12.5607 13.7231 12.3385 13.8124 12.07L14.8788 8.87025C15.0654 8.3102 14.7626 7.7057 14.2026 7.51967C13.643 7.33363 13.0385 7.63637 12.8525 8.19594L11.7856 11.3961C11.6962 11.6647 11.7177 11.9581 11.8447 12.2111C11.9716 12.464 12.1943 12.6564 12.4628 12.7453Z" fill="black"/>
<path d="M9.26306 21.2785C9.53161 21.3678 9.82458 21.3473 10.0775 21.2204C10.3304 21.0939 10.5228 20.8717 10.6122 20.6032L11.6791 17.4035C11.8651 16.8439 11.5624 16.2389 11.0028 16.0529C10.4432 15.8668 9.83825 16.1696 9.65222 16.7291L8.58581 19.9293C8.49646 20.1979 8.51745 20.4913 8.6444 20.7443C8.77136 20.9977 8.99401 21.1896 9.26306 21.2785Z" fill="black"/>
<path d="M53.3335 18.1318C53.3335 19.8994 54.7661 21.332 56.5337 21.332C58.3008 21.332 59.7334 19.8994 59.7334 18.1318C59.7334 16.3647 58.3008 14.9316 56.5337 14.9316C54.7661 14.9316 53.3335 16.3647 53.3335 18.1318ZM57.6001 18.1318C57.6001 18.7212 57.1226 19.1987 56.5337 19.1987C55.9443 19.1987 55.4668 18.7212 55.4668 18.1318C55.4668 17.543 55.9443 17.0654 56.5337 17.0654C57.1226 17.0654 57.6001 17.543 57.6001 18.1318Z" fill="black"/>
<path d="M53.3335 12.7983C55.1006 12.7983 56.5337 11.3657 56.5337 9.59863C56.5337 7.83105 55.1006 6.39844 53.3335 6.39844C51.5664 6.39844 50.1333 7.83105 50.1333 9.59863C50.1333 11.3657 51.5664 12.7983 53.3335 12.7983ZM53.3335 8.53174C53.9224 8.53174 54.4004 9.00928 54.4004 9.59863C54.4004 10.1875 53.9224 10.665 53.3335 10.665C52.7441 10.665 52.2666 10.1875 52.2666 9.59863C52.2666 9.00928 52.7441 8.53174 53.3335 8.53174Z" fill="black"/>
<path d="M61.8664 5.51563e-07H45.1839C44.5042 -0.000487727 43.8655 0.323241 43.4632 0.870602C43.0608 1.41845 42.9436 2.12499 43.1477 2.77342L43.1731 2.85546C39.5452 3.90623 35.7752 4.3823 31.9998 4.26658C28.2245 4.38182 24.4545 3.90477 20.8266 2.85204L20.8524 2.77001C21.0551 2.12206 20.9374 1.4165 20.5351 0.869625C20.1332 0.322753 19.495 5.51563e-07 18.8158 5.51563e-07H2.13329C0.955074 5.51563e-07 0 0.955074 0 2.13329V61.8664C0 63.0446 0.955074 63.9997 2.13329 63.9997H17.7069C18.3964 63.9992 19.0439 63.6652 19.4438 63.1032C19.8437 62.5412 19.9472 61.8205 19.7216 61.1687L17.1615 53.7683C18.4306 52.9968 19.2035 51.6179 19.2001 50.1331C19.1928 49.99 19.1786 49.8479 19.1562 49.7063L29.1522 62.6257C29.8426 63.4938 30.8915 64.0002 32.0003 64.0002C33.1097 64.0002 34.1585 63.4938 34.849 62.6257L44.8435 49.7063C44.8216 49.8479 44.8069 49.99 44.8001 50.1331C44.7976 51.2649 45.2483 52.3508 46.0511 53.1487C46.2913 53.383 46.5579 53.5891 46.846 53.762L44.2859 61.1677C44.0603 61.8186 44.1629 62.5383 44.5608 63.1003C44.9593 63.6618 45.6043 63.9973 46.2932 63.9997H61.8664C63.0446 63.9997 63.9997 63.0446 63.9997 61.8664V2.13329C63.9997 0.955074 63.0446 5.51563e-07 61.8664 5.51563e-07ZM47.9998 2.13329H61.8664V22.3998H51.5251L45.1839 2.13329H47.9998ZM61.8664 52.2664H49.0667C47.8884 52.2664 46.9334 51.3113 46.9334 50.1331C46.9334 48.9548 47.8884 47.9998 49.0667 47.9998H56.5334C57.1223 47.9998 57.5998 47.5222 57.5998 46.9329C57.5998 46.344 57.1223 45.8665 56.5334 45.8665H49.0667C48.5007 45.8679 47.9578 45.6424 47.5593 45.2405C47.5032 45.1834 47.4505 45.1233 47.4016 45.0598C47.0974 44.6848 46.9324 44.2161 46.9334 43.7332C46.9334 42.555 47.8884 41.5999 49.0667 41.5999H56.5334C57.1223 41.5999 57.5998 41.1224 57.5998 40.533C57.5998 39.9441 57.1223 39.4666 56.5334 39.4666H49.0667C48.5007 39.4676 47.9578 39.2425 47.5593 38.8401C47.4348 38.7176 47.3274 38.5789 47.2395 38.4276C46.8416 37.7698 46.8294 36.9481 47.2083 36.2791C47.5872 35.6097 48.2976 35.1971 49.0667 35.2H56.5334C57.1223 35.2 57.5998 34.7225 57.5998 34.1331C57.5998 33.5443 57.1223 33.0667 56.5334 33.0667H49.0667C48.1272 33.0697 47.2967 32.4579 47.0208 31.5604C46.7444 30.6625 47.0882 29.6898 47.8665 29.1649C48.2215 28.9266 48.6394 28.7997 49.0667 28.7997H56.5334C57.1223 28.7997 57.5998 28.3221 57.5998 27.7333C57.5998 27.1439 57.1223 26.6664 56.5334 26.6664H49.0667C49.0652 26.1005 49.2908 25.558 49.6926 25.1595C49.7781 25.0741 49.8699 24.9945 49.967 24.9227C50.2395 24.7323 50.5544 24.6107 50.884 24.5673C50.9314 24.5619 50.9778 24.5526 51.0237 24.5409C51.0828 24.5331 51.1414 24.5331 51.2 24.5331H61.8664V52.2664ZM54.4001 55.4665C54.4001 56.0554 53.9221 56.5329 53.3332 56.5329C52.7439 56.5329 52.2664 56.0554 52.2664 55.4665C52.2664 54.8772 52.7439 54.3996 53.3332 54.3996C53.9221 54.3996 54.4001 54.8772 54.4001 55.4665ZM17.0668 50.1331C17.0683 51.0984 16.4169 51.9431 15.4828 52.1863C15.3051 52.2429 15.1196 52.2698 14.9335 52.2664H2.13329V24.5331H12.8002C12.8715 24.5321 12.9428 24.538 13.0136 24.5502C13.0478 24.5555 13.0776 24.559 13.1201 24.5673C13.4394 24.6102 13.7446 24.7279 14.0107 24.9095C14.1152 24.9852 14.2128 25.0687 14.3041 25.1595C14.707 25.557 14.934 26.1 14.9335 26.6664H7.46676C6.8779 26.6664 6.40036 27.1439 6.40036 27.7333C6.40036 28.3221 6.8779 28.7997 7.46676 28.7997H14.9335C15.5004 28.7962 16.0448 29.0199 16.4457 29.4208C16.8466 29.8216 17.0702 30.3666 17.0668 30.933C17.0668 32.1112 16.1117 33.0667 14.9335 33.0667H7.46676C6.8779 33.0667 6.40036 33.5443 6.40036 34.1331C6.40036 34.7225 6.8779 35.2 7.46676 35.2H14.9335C16.1117 35.2 17.0668 36.1551 17.0668 37.3333C17.0634 37.7269 16.953 38.1121 16.7465 38.4481C16.662 38.5916 16.5585 38.7234 16.4394 38.8401C16.0414 39.242 15.499 39.4676 14.9335 39.4666H7.46676C6.8779 39.4666 6.40036 39.9441 6.40036 40.533C6.40036 41.1224 6.8779 41.5999 7.46676 41.5999H14.9335C16.1117 41.5999 17.0668 42.555 17.0668 43.7332C17.0668 44.9114 16.1117 45.8665 14.9335 45.8665H7.46676C6.8779 45.8665 6.40036 46.344 6.40036 46.9329C6.40036 47.5222 6.8779 47.9998 7.46676 47.9998H14.9335C16.1117 47.9998 17.0668 48.9548 17.0668 50.1331ZM16.5004 16.707L17.6884 15.2797C18.4525 14.3784 19.5761 13.8608 20.7572 13.8666H43.2425C44.4256 13.8613 45.5501 14.3798 46.3137 15.2831L47.5188 16.7392L49.2317 22.2113L44.5794 16.6015C44.242 16.2162 43.7542 15.997 43.2425 15.9999H20.7572C20.2421 15.9975 19.7514 16.2201 19.4145 16.6103L14.7895 22.1864L16.5004 16.707ZM31.9998 6.39987C35.992 6.51413 39.9769 6.00388 43.8113 4.88767L46.1868 12.4799C45.283 11.9897 44.2708 11.7329 43.2425 11.7333H20.7572C19.7333 11.7329 18.725 11.9868 17.8232 12.4726L20.1898 4.88963C24.0243 6.00437 28.0087 6.51413 31.9998 6.39987ZM15.9999 2.13329H18.8158L14.5258 15.872L14.5195 15.8945L12.4931 22.4008H2.13329V2.13329H15.9999ZM2.13329 61.8664V54.3996H10.9003L11.7656 57.8591C11.8842 58.3337 12.311 58.6662 12.8002 58.6662C12.8876 58.6667 12.9755 58.656 13.0605 58.6345C13.6318 58.4914 13.9789 57.9118 13.8359 57.3405L13.1 54.3996H14.9335H15.1157L17.7069 61.8664H2.13329ZM33.1615 61.32C32.8661 61.6511 32.4437 61.84 31.9998 61.84C31.5565 61.84 31.1336 61.6511 30.8382 61.32L18.7211 45.6531C19.2626 44.6448 19.349 43.4534 18.9589 42.3772L31.1561 58.1457C31.3583 58.4069 31.6698 58.5598 31.9998 58.5598C32.3299 58.5598 32.6419 58.4069 32.8436 58.1457L45.0408 42.3797C44.8865 42.8142 44.8055 43.2718 44.8001 43.7332C44.8035 44.4041 44.9661 45.0642 45.2737 45.6604L33.1615 61.32ZM46.2932 61.8664L48.884 54.3826C48.9441 54.3826 49.0017 54.3996 49.0623 54.3996H50.3254C50.2004 54.7414 50.1355 55.1023 50.1331 55.4665C50.1331 57.2336 51.5662 58.6662 53.3332 58.6662C55.1003 58.6662 56.5334 57.2336 56.5334 55.4665C56.5295 55.1023 56.4631 54.7414 56.3371 54.3996H61.8664V61.8664H46.2932Z" fill="black"/>
<path d="M44.8875 33.3826V23.6576C44.8875 23.5076 44.7 23.4451 44.6 23.5576L33.975 36.8326C33.8875 36.9326 33.9625 37.0951 34.1 37.0951H41.775C41.9875 37.0951 42.175 36.9951 42.3 36.8326L44.725 33.8076C44.825 33.6951 44.8875 33.5451 44.8875 33.3826ZM20.0375 33.8201L28.0125 43.7951C28.1375 43.9576 28.3375 44.0451 28.55 44.0451H36.225C36.3625 44.0451 36.4375 43.8951 36.35 43.7951L20.1625 23.5701C20.0625 23.4576 19.875 23.5201 19.875 23.6701V33.3951C19.8875 33.5451 19.9375 33.6951 20.0375 33.8201Z" fill="#FF4656"/>
</g>
<path d="M106.28 7.84H116.44C117.507 7.84 118.387 8.26666 119.08 9.12L147.88 46.56V8.8C147.88 8.53333 147.96 8.32 148.12 8.16C148.333 7.94667 148.573 7.84 148.84 7.84H157.08C157.347 7.84 157.56 7.94667 157.72 8.16C157.933 8.32 158.04 8.53333 158.04 8.8V62.88C158.04 63.52 157.72 63.84 157.08 63.84H149.48C148.413 63.84 147.533 63.4133 146.84 62.56L105.72 8.96C105.507 8.74666 105.48 8.50666 105.64 8.24C105.8 7.97333 106.013 7.84 106.28 7.84ZM169.59 63.04V8.96C169.59 8.69333 169.67 8.48 169.83 8.32C170.043 8.10666 170.283 8 170.55 8H178.15C179.217 8 180.097 8.42666 180.79 9.28L221.99 62.88C222.15 63.1467 222.15 63.4133 221.99 63.68C221.883 63.8933 221.67 64 221.35 64H211.19C210.123 64 209.243 63.5733 208.55 62.72L194.71 44.64L180.79 62.72C180.097 63.5733 179.217 64 178.15 64H170.55C170.283 64 170.043 63.92 169.83 63.76C169.67 63.5467 169.59 63.3067 169.59 63.04ZM179.83 25.28V46.72L188.07 36L179.83 25.28ZM229.3 8H237.54C238.233 8 238.58 8.32 238.58 8.96V53.84H260.98C261.3 53.84 261.513 53.9733 261.62 54.24C261.78 54.5067 261.78 54.7467 261.62 54.96L255.62 62.72C254.927 63.5733 254.073 64 253.06 64H229.3C229.033 64 228.793 63.92 228.58 63.76C228.42 63.5467 228.34 63.3067 228.34 63.04V8.96C228.34 8.69333 228.42 8.48 228.58 8.32C228.793 8.10666 229.033 8 229.3 8ZM265.709 35.76C265.709 31.6533 266.456 27.84 267.949 24.32C269.496 20.7467 271.549 17.68 274.109 15.12C276.723 12.5067 279.789 10.48 283.309 9.04C286.829 7.54666 290.616 6.82666 294.669 6.88C298.723 6.93333 302.509 7.73333 306.029 9.28C309.549 10.8267 312.589 12.9333 315.149 15.6C317.763 18.2667 319.816 21.3867 321.309 24.96C322.803 28.48 323.523 32.24 323.469 36.24C323.416 40.2933 322.616 44.08 321.069 47.6C319.523 51.12 317.416 54.1867 314.749 56.8C312.136 59.4133 309.069 61.4667 305.549 62.96C302.029 64.4 298.243 65.12 294.189 65.12C290.189 65.12 286.429 64.3733 282.909 62.88C279.443 61.3333 276.429 59.2533 273.869 56.64C271.309 53.9733 269.309 50.8533 267.869 47.28C266.429 43.7067 265.709 39.8667 265.709 35.76ZM275.949 36.16C275.949 38.7733 276.456 41.2533 277.469 43.6C278.483 45.9467 279.843 48 281.549 49.76C283.256 51.52 285.229 52.9067 287.469 53.92C289.709 54.9333 292.109 55.44 294.669 55.44C297.176 55.3867 299.549 54.8267 301.789 53.76C304.029 52.6933 305.976 51.28 307.629 49.52C309.336 47.7067 310.669 45.6267 311.629 43.28C312.589 40.88 313.043 38.3733 312.989 35.76C312.989 33.1467 312.483 30.6667 311.469 28.32C310.456 25.9733 309.096 23.9467 307.389 22.24C305.683 20.48 303.683 19.0933 301.389 18.08C299.149 17.0667 296.776 16.56 294.269 16.56C291.763 16.6133 289.389 17.1733 287.149 18.24C284.909 19.2533 282.963 20.6667 281.309 22.48C279.656 24.24 278.349 26.2933 277.389 28.64C276.429 30.9867 275.949 33.4933 275.949 36.16ZM332.637 8.8C332.637 8.53333 332.717 8.32 332.877 8.16C333.09 7.94667 333.33 7.84 333.597 7.84H375.837C376.104 7.84 376.317 7.94667 376.477 8.16C376.69 8.32 376.797 8.53333 376.797 8.8V20.56C376.797 21.3067 376.557 21.9733 376.077 22.56L363.437 39.12L381.517 62.72C381.677 62.9867 381.677 63.2533 381.517 63.52C381.41 63.7333 381.224 63.84 380.957 63.84H370.797C369.73 63.84 368.85 63.4133 368.157 62.56L350.637 39.76C350.264 39.3333 350.264 38.9333 350.637 38.56L366.397 18H342.877V62.88C342.877 63.52 342.53 63.84 341.837 63.84H333.597C333.33 63.84 333.09 63.76 332.877 63.6C332.717 63.3867 332.637 63.1467 332.637 62.88V8.8ZM389.066 8H396.666C397.732 8 398.612 8.42666 399.306 9.28L440.426 62.88C440.639 63.0933 440.666 63.3333 440.506 63.6C440.399 63.8667 440.186 64 439.866 64H429.706C428.639 64 427.759 63.5733 427.066 62.72L413.226 44.64L399.306 62.72C398.612 63.5733 397.732 64 396.666 64H389.066C388.799 64 388.559 63.92 388.346 63.76C388.186 63.5467 388.106 63.3067 388.106 63.04V8.96C388.106 8.69333 388.186 8.48 388.346 8.32C388.559 8.10666 388.799 8 389.066 8ZM432.266 8.96C432.266 8.32 432.612 8 433.306 8H440.906C441.919 8 442.772 8.42666 443.466 9.28L472.266 46.72V8.96C472.266 8.32 472.586 8 473.226 8H481.466C482.159 8 482.506 8.32 482.506 8.96V63.04C482.506 63.3067 482.399 63.5467 482.186 63.76C481.972 63.92 481.732 64 481.466 64H473.866C472.799 64 471.919 63.5733 471.226 62.72L442.506 25.28V47.2C442.506 47.52 442.346 47.7333 442.026 47.84C441.706 47.9467 441.439 47.8667 441.226 47.6L432.986 36.88C432.506 36.2933 432.266 35.6267 432.266 34.88V8.96ZM398.346 25.28V46.72L406.586 36L398.346 25.28ZM491.321 8.8C491.321 8.53333 491.401 8.32 491.561 8.16C491.775 7.94667 492.015 7.84 492.281 7.84H527.001C528.068 7.84 528.948 8.26666 529.641 9.12L535.561 16.88C535.775 17.1467 535.801 17.4133 535.641 17.68C535.535 17.8933 535.321 18 535.001 18H517.161V62.88C517.161 63.52 516.841 63.84 516.201 63.84H507.961C507.321 63.84 507.001 63.52 507.001 62.88V18H492.281C492.015 18 491.775 17.92 491.561 17.76C491.401 17.5467 491.321 17.3067 491.321 17.04V8.8ZM564.356 63.04V8.96C564.356 8.69333 564.436 8.48 564.596 8.32C564.809 8.10666 565.049 8 565.316 8H573.556C574.249 8 574.596 8.32 574.596 8.96V30.96H597.556V8.96C597.556 8.69333 597.636 8.48 597.796 8.32C598.009 8.10666 598.249 8 598.516 8H606.836C607.102 8 607.316 8.10666 607.476 8.32C607.689 8.48 607.796 8.69333 607.796 8.96V63.04C607.796 63.3067 607.689 63.5467 607.476 63.76C607.316 63.92 607.102 64 606.836 64H598.516C598.249 64 598.009 63.92 597.796 63.76C597.636 63.5467 597.556 63.3067 597.556 63.04V41.12H574.596V63.04C574.596 63.68 574.249 64 573.556 64H565.316C565.049 64 564.809 63.92 564.596 63.76C564.436 63.5467 564.356 63.3067 564.356 63.04ZM619.278 8.96C619.278 8.69333 619.358 8.48 619.518 8.32C619.731 8.10666 619.971 8 620.238 8H654.798C655.438 8 655.758 8.32 655.758 8.96V17.2C655.758 17.84 655.438 18.16 654.798 18.16H629.518V30.96H649.518C650.158 30.96 650.478 31.28 650.478 31.92V40.08C650.478 40.7733 650.158 41.12 649.518 41.12H629.518V53.84H657.278C657.598 53.84 657.811 53.9733 657.918 54.24C658.078 54.5067 658.051 54.7467 657.838 54.96L651.918 62.72C651.224 63.5733 650.344 64 649.278 64H620.238C619.971 64 619.731 63.92 619.518 63.76C619.358 63.5467 619.278 63.3067 619.278 63.04V8.96ZM665.606 8.8C665.606 8.53333 665.686 8.32 665.846 8.16C666.059 7.94667 666.299 7.84 666.566 7.84H708.806C709.072 7.84 709.286 7.94667 709.446 8.16C709.659 8.32 709.766 8.53333 709.766 8.8V20.56C709.766 21.3067 709.526 21.9733 709.046 22.56L696.406 39.12L714.486 62.72C714.646 62.9867 714.646 63.2533 714.486 63.52C714.379 63.7333 714.192 63.84 713.926 63.84H703.766C702.699 63.84 701.819 63.4133 701.126 62.56L683.606 39.76C683.232 39.3333 683.232 38.9333 683.606 38.56L699.366 18H675.846V62.88C675.846 63.52 675.499 63.84 674.806 63.84H666.566C666.299 63.84 666.059 63.76 665.846 63.6C665.686 63.3867 665.606 63.1467 665.606 62.88V8.8ZM715.944 35.76C715.944 31.6533 716.69 27.84 718.184 24.32C719.73 20.7467 721.784 17.68 724.344 15.12C726.957 12.5067 730.024 10.48 733.544 9.04C737.064 7.54666 740.85 6.82666 744.904 6.88C748.957 6.93333 752.744 7.73333 756.264 9.28C759.784 10.8267 762.824 12.9333 765.384 15.6C767.997 18.2667 770.05 21.3867 771.544 24.96C773.037 28.48 773.757 32.24 773.704 36.24C773.65 40.2933 772.85 44.08 771.304 47.6C769.757 51.12 767.65 54.1867 764.984 56.8C762.37 59.4133 759.304 61.4667 755.784 62.96C752.264 64.4 748.477 65.12 744.424 65.12C740.424 65.12 736.664 64.3733 733.144 62.88C729.677 61.3333 726.664 59.2533 724.104 56.64C721.544 53.9733 719.544 50.8533 718.104 47.28C716.664 43.7067 715.944 39.8667 715.944 35.76ZM726.184 36.16C726.184 38.7733 726.69 41.2533 727.704 43.6C728.717 45.9467 730.077 48 731.784 49.76C733.49 51.52 735.464 52.9067 737.704 53.92C739.944 54.9333 742.344 55.44 744.904 55.44C747.41 55.3867 749.784 54.8267 752.024 53.76C754.264 52.6933 756.21 51.28 757.864 49.52C759.57 47.7067 760.904 45.6267 761.864 43.28C762.824 40.88 763.277 38.3733 763.224 35.76C763.224 33.1467 762.717 30.6667 761.704 28.32C760.69 25.9733 759.33 23.9467 757.624 22.24C755.917 20.48 753.917 19.0933 751.624 18.08C749.384 17.0667 747.01 16.56 744.504 16.56C741.997 16.6133 739.624 17.1733 737.384 18.24C735.144 19.2533 733.197 20.6667 731.544 22.48C729.89 24.24 728.584 26.2933 727.624 28.64C726.664 30.9867 726.184 33.4933 726.184 36.16ZM782.871 8.96C782.871 8.69333 782.951 8.48 783.111 8.32C783.325 8.10666 783.565 8 783.831 8H818.391C819.031 8 819.351 8.32 819.351 8.96V17.2C819.351 17.84 819.031 18.16 818.391 18.16H793.111V30.96H813.111C813.751 30.96 814.071 31.28 814.071 31.92V40.08C814.071 40.7733 813.751 41.12 813.111 41.12H793.111V53.84H820.871C821.191 53.84 821.405 53.9733 821.511 54.24C821.671 54.5067 821.645 54.7467 821.431 54.96L815.511 62.72C814.818 63.5733 813.938 64 812.871 64H783.831C783.565 64 783.325 63.92 783.111 63.76C782.951 63.5467 782.871 63.3067 782.871 63.04V8.96ZM827.679 24.4C827.679 21.8933 828.186 19.5733 829.199 17.44C830.266 15.3067 831.679 13.4667 833.439 11.92C835.253 10.3733 837.333 9.14667 839.679 8.24C842.079 7.33333 844.613 6.88 847.279 6.88C851.439 6.88 855.039 7.62666 858.079 9.12C861.173 10.56 863.493 12.24 865.039 14.16C865.413 14.64 865.386 15.0667 864.959 15.44L859.439 21.2C859.226 21.4133 858.959 21.52 858.639 21.52C858.373 21.52 858.133 21.3867 857.919 21.12C857.439 20.5867 856.826 20.0533 856.079 19.52C855.386 18.9867 854.559 18.5067 853.599 18.08C852.693 17.6 851.706 17.2267 850.639 16.96C849.573 16.6933 848.479 16.56 847.359 16.56C846.026 16.56 844.799 16.7733 843.679 17.2C842.613 17.5733 841.706 18.08 840.959 18.72C840.213 19.36 839.626 20.1067 839.199 20.96C838.773 21.8133 838.559 22.72 838.559 23.68C838.559 25.2267 839.066 26.56 840.079 27.68C841.093 28.8 842.613 29.5733 844.639 30L852.479 31.52C855.039 32 857.279 32.7733 859.199 33.84C861.173 34.8533 862.799 36.08 864.079 37.52C865.413 38.96 866.426 40.5867 867.119 42.4C867.813 44.16 868.159 46.0267 868.159 48C868.159 50.1333 867.706 52.24 866.799 54.32C865.946 56.4 864.639 58.2667 862.879 59.92C861.173 61.5733 859.066 62.9067 856.559 63.92C854.053 64.88 851.173 65.36 847.919 65.36C845.626 65.36 843.466 65.12 841.439 64.64C839.466 64.16 837.653 63.5467 835.999 62.8C834.399 62 832.986 61.1467 831.759 60.24C830.533 59.28 829.519 58.3467 828.719 57.44C828.346 57.0667 828.346 56.64 828.719 56.16L833.759 49.68C833.919 49.4133 834.133 49.28 834.399 49.28C834.719 49.2267 834.986 49.3067 835.199 49.52C835.946 50.2133 836.773 50.9333 837.679 51.68C838.586 52.3733 839.573 53.0133 840.639 53.6C841.706 54.1867 842.853 54.6667 844.079 55.04C845.306 55.4133 846.613 55.6 847.999 55.6C850.933 55.6 853.173 54.96 854.719 53.68C856.266 52.4 857.039 50.7467 857.039 48.72C857.039 47.12 856.453 45.7333 855.279 44.56C854.159 43.3333 852.479 42.5067 850.239 42.08L842.399 40.48C837.919 39.5733 834.346 37.7333 831.679 34.96C829.013 32.1867 827.679 28.6667 827.679 24.4Z" fill="url(#paint0_linear)"/>
<defs>
<linearGradient id="paint0_linear" x1="-383" y1="-185.279" x2="1257.96" y2="266.56" gradientUnits="userSpaceOnUse">
<stop stop-color="#E24350"/>
<stop offset="1" stop-color="#A8DFFF"/>
</linearGradient>
<clipPath id="clip0">
<rect width="64" height="64" fill="white"/>
</clipPath>
</defs>
</svg>
